:FULLY-SPECIFIED
:FORCE-ALL-JOINTS-BE-3DOF
:DEGREES
230
root 1.44651 17.3251 15.4042 -1.12386 13.4676 -2.4561
lfemur -26.5916 -1.26022 -18.9224
ltibia 54.7198 0 0
lfoot -8.8738 0.0466087 -0.0422689
ltoes 2.81619 0 0
rfemur -4.02883 4.62907 27.4497
rtibia 35.6955 0 0
rfoot -5.05248 -1.53677 0.499885
rtoes 4.8097 0 0
lowerback 6.35428 1.21359 1.51756
upperback 0.667908 1.82217 2.81018
thorax -2.91773 0.911105 1.87531
lowerneck -15.1939 -3.54842 -9.73858
upperneck 23.5395 -3.51319 4.39344
head 10.3021 -1.96434 2.72928
lclavicle 4.478e-14 -3.18056e-16 -2.07145e-31
lhumerus -34.8921 10.1161 83.1435
lradius 28.676 0 0
lwrist -9.4206 0 0
lhand -12.8053 23.4862 0.0377496
lfingers 7.12502 0 0
lthumb 13.2805 53.0369 0.0350182
rclavicle 4.478e-14 -3.18056e-16 -2.07145e-31
rhumerus -33.2804 -14.1061 -76.7451
rradius 33.1203 0 0
rwrist 5.82319 0 0
rhand -15.2376 12.3786 0.00532578
rfingers 7.12502 0 0
rthumb 10.9356 -17.316 0.00525355
231
root 1.50331 17.3173 15.5602 -1.09186 13.276 -2.32289
lfemur -27.0636 -1.52832 -19.2928
ltibia 53.3942 0 0
lfoot -9.21649 0.838163 -0.0454158
ltoes 3.43864 0 0
rfemur -4.08463 4.1356 27.1336
rtibia 36.3644 0 0
rfoot -6.44947 -1.86094 0.463377
rtoes 4.20464 0 0
lowerback 6.41725 1.20167 1.54501
upperback 0.654692 1.80771 2.72117
thorax -2.97214 0.903878 1.76917
lowerneck -15.3439 -3.47046 -9.60535
upperneck 23.5348 -3.39069 4.26333
head 10.3135 -1.91034 2.67566
lclavicle -1.3049e-14 -1.37559e-14 3.95913e-30
lhumerus -35.2626 11.8033 81.8936
lradius 27.718 0 0
lwrist -13.2055 0 0
lhand -8.46946 15.3628 -0.0831725
lfingers 7.12502 0 0
lthumb 17.4568 44.5956 -0.0809755
rclavicle -1.3049e-14 -1.37559e-14 3.95913e-30
rhumerus -32.8991 -13.607 -76.9292
rradius 33.5345 0 0
rwrist 5.80813 0 0
rhand -15.3725 12.6002 0.0123099
rfingers 7.12502 0 0
rthumb 10.8053 -17.0989 0.012427
232
root 1.55879 17.3102 15.7204 -1.03149 13.0271 -2.12494
lfemur -27.5024 -1.63367 -19.7032
ltibia 51.8906 0 0
lfoot -9.48714 1.47436 -0.0448388
ltoes 2.32582 0 0
rfemur -4.21536 3.66969 26.7283
rtibia 36.9675 0 0
rfoot -7.52422 -1.79616 0.410468
rtoes 4.05954 0 0
lowerback 6.4357 1.20419 1.55133
upperback 0.64378 1.80835 2.59223
thorax -2.99596 0.90339 1.63566
lowerneck -15.4278 -3.3379 -9.53201
upperneck 23.4746 -3.1799 4.1277
head 10.2871 -1.82189 2.64213
lclavicle 1.63227e-14 -1.1609e-14 -2.80118e-30
lhumerus -35.3582 11.033 82.4992
lradius 27.7869 0 0
lwrist -11.1786 0 0
lhand -10.6208 18.3298 -0.0269768
lfingers 7.12502 0 0
lthumb 15.3857 47.7367 -0.0261329
rclavicle 1.63227e-14 -1.1609e-14 -2.80118e-30
rhumerus -32.4204 -12.8418 -77.1907
rradius 33.9823 0 0
rwrist 5.42814 0 0
rhand -15.2903 12.7874 0.0207834
rfingers 7.12502 0 0
rthumb 10.8844 -16.9038 0.0213241
233
root 1.6113 17.3059 15.8918 -1.07833 12.7979 -1.99877
lfemur -27.7669 -1.52968 -19.9222
ltibia 50.2961 0 0
lfoot -9.86413 1.73084 -0.0427601
ltoes 0.768108 0 0
rfemur -4.18152 3.44307 26.5289
rtibia 37.4505 0 0
rfoot -8.40361 -2.06437 0.362179
rtoes 4.66471 0 0
lowerback 6.41535 1.24208 1.42306
upperback 0.699734 1.84617 2.53855
thorax -2.93028 0.924354 1.65127
lowerneck -15.4592 -3.29592 -9.45879
upperneck 23.3989 -3.09986 3.98951
head 10.2562 -1.79351 2.5901
lclavicle 5.69653e-14 -1.35174e-15 -2.28484e-30
lhumerus -35.2649 10.1253 83.1864
lradius 27.738 0 0
lwrist -9.28469 0 0
lhand -12.3435 21.1456 -0.00755949
lfingers 7.12502 0 0
lthumb 13.726 50.6728 -0.00730984
rclavicle 5.69653e-14 -1.35174e-15 -2.28484e-30
rhumerus -31.9615 -12.2146 -77.4319
rradius 34.4325 0 0
rwrist 4.48925 0 0
rhand -15.489 13.0962 0.0215772
rfingers 7.12502 0 0
rthumb 10.6926 -16.6019 0.0226657
234
root 1.6636 17.2925 16.0661 -1.11499 12.6428 -1.9935
lfemur -27.932 -1.70877 -19.9194
ltibia 48.6328 0 0
lfoot -10.4132 2.14627 -0.0422976
ltoes -0.431427 0 0
rfemur -4.08869 3.1323 26.583
rtibia 37.7514 0 0
rfoot -9.11362 -2.6394 0.297598
rtoes 3.69154 0 0
lowerback 6.44469 1.19997 1.32527
upperback 0.731914 1.7852 2.58976
thorax -2.91445 0.896691 1.76536
lowerneck -15.5584 -3.23501 -9.38646
upperneck 23.4117 -2.99602 3.8752
head 10.2681 -1.752 2.55023
lclavicle 3.4663e-14 2.8625e-15 4.85182e-32
lhumerus -35.3836 8.98465 84.0163
lradius 28.0426 0 0
lwrist -7.0628 0 0
lhand -14.0047 24.6831 0.00939395
lfingers 7.12502 0 0
lthumb 12.1246 54.3111 0.008917
rclavicle 3.4663e-14 2.8625e-15 4.85182e-32
rhumerus -31.6245 -11.4337 -77.7346
rradius 34.9526 0 0
rwrist 3.65717 0 0
rhand -16.1588 12.9873 0.00676101
rfingers 7.12502 0 0
rthumb 10.0465 -16.7448 0.00797185
235
root 1.71598 17.2815 16.2401 -1.10357 12.4707 -2.25036
lfemur -28.089 -2.01979 -19.5888
ltibia 46.9314 0 0
lfoot -10.8593 2.47779 -0.0354723
ltoes -0.286677 0 0
rfemur -3.99927 3.07377 26.8911
rtibia 37.8372 0 0
rfoot -9.78653 -3.22338 0.219455
rtoes 3.46764 0 0
lowerback 6.47374 1.11973 1.53862
upperback 0.692369 1.69934 2.69068
thorax -2.96367 0.852833 1.75831
lowerneck -15.6277 -3.24792 -9.49919
upperneck 23.439 -2.97366 3.85608
head 10.2914 -1.75484 2.56478
lclavicle -7.7526e-15 1.06549e-14 9.55888e-32
lhumerus -35.727 7.94513 84.7648
lradius 28.5538 0 0
lwrist -4.6878 0 0
lhand -15.908 29.1159 -0.0145201
lfingers 7.12502 0 0
lthumb 10.2884 58.8345 -0.015786
rclavicle -7.7526e-15 1.06549e-14 9.55888e-32
rhumerus -31.4704 -10.5367 -78.0381
rradius 35.6793 0 0
rwrist 3.1489 0 0
rhand -16.5702 12.3132 -0.00606695
rfingers 7.12502 0 0
rthumb 9.64984 -17.4416 -0.00512828
236
root 1.77403 17.282 16.4129 -1.03399 12.247 -2.49612
lfemur -28.193 -2.35617 -19.2711
ltibia 45.1111 0 0
lfoot -11.1079 2.78343 -0.0239714
ltoes -0.078828 0 0
rfemur -3.86533 3.02811 27.0937
rtibia 37.7055 0 0
rfoot -10.3736 -3.64516 0.155973
rtoes 3.01419 0 0
lowerback 6.38533 1.15502 1.82709
upperback 0.676601 1.76541 2.70883
thorax -2.91974 0.882309 1.61286
lowerneck -15.6885 -3.33105 -9.58264
upperneck 23.4642 -3.07536 3.90376
head 10.3224 -1.80402 2.58147
lclavicle 8.35266e-15 2.22637e-15 -2.80422e-30
lhumerus -35.8496 7.93989 84.635
lradius 28.0471 0 0
lwrist -5.55576 0 0
lhand -15.1271 28.1013 -0.00584803
lfingers 7.12502 0 0
lthumb 11.0419 57.786 -0.00656486
rclavicle 8.35266e-15 2.22637e-15 -2.80422e-30
rhumerus -31.2424 -10.1017 -78.1268
rradius 36.3349 0 0
rwrist 2.8159 0 0
rhand -16.5034 11.789 -0.00580316
rfingers 7.12502 0 0
rthumb 9.71441 -17.964 -0.00509781
237
root 1.83317 17.2839 16.582 -0.786212 12.0432 -2.56223
lfemur -28.3988 -2.70908 -19.102
ltibia 43.1255 0 0
lfoot -10.8411 3.22739 -0.00732222
ltoes -0.927548 0 0
rfemur -3.72553 2.88758 27.189
rtibia 37.3283 0 0
rfoot -10.7319 -4.07002 0.115215
rtoes 1.88552 0 0
lowerback 6.27642 1.16639 1.92991
upperback 0.665295 1.78473 2.72423
thorax -2.86269 0.890863 1.57322
lowerneck -15.7821 -3.24074 -9.57319
upperneck 23.3994 -2.93997 3.89634
head 10.3063 -1.74047 2.59457
lclavicle 2.50792e-14 -1.97989e-14 -4.44264e-32
lhumerus -35.807 7.98062 84.6505
lradius 27.5781 0 0
lwrist -6.13201 0 0
lhand -14.9188 26.6634 -1.0272e-05
lfingers 7.12502 0 0
lthumb 11.243 56.3411 -0.000187747
rclavicle 2.50792e-14 -1.97989e-14 -4.44264e-32
rhumerus -30.8412 -9.81054 -78.0939
rradius 36.8408 0 0
rwrist 2.56778 0 0
rhand -16.3981 11.8342 -0.00513884
rfingers 7.12502 0 0
rthumb 9.81592 -17.9136 -0.0043813
238
root 1.89301 17.2821 16.7536 -0.54314 11.9532 -2.51842
lfemur -28.5455 -2.98125 -19.1026
ltibia 41.0123 0 0
lfoot -10.2446 3.58054 0.0226149
ltoes -2.07385 0 0
rfemur -3.40627 2.88716 27.1636
rtibia 36.7729 0 0
rfoot -11.103 -4.5535 0.0850777
rtoes 1.84125 0 0
lowerback 6.30942 1.13747 1.90062
upperback 0.59818 1.74477 2.69125
thorax -2.94566 0.8705 1.55855
lowerneck -15.6922 -3.11443 -9.47807
upperneck 23.2403 -2.78846 3.85796
head 10.2174 -1.66663 2.58456
lclavicle -1.88671e-14 1.24837e-14 -1.00806e-30
lhumerus -35.8703 8.57501 84.2405
lradius 26.8481 0 0
lwrist -7.74978 0 0
lhand -13.7545 22.8656 -0.00229211
lfingers 7.12502 0 0
lthumb 12.3658 52.4798 -0.00221539
rclavicle -1.88671e-14 1.24837e-14 -1.00806e-30
rhumerus -30.6841 -9.80133 -78.0651
rradius 37.4109 0 0
rwrist 2.60409 0 0
rhand -16.3702 11.8868 -0.00805543
rfingers 7.12502 0 0
rthumb 9.84286 -17.8598 -0.00720235
239
root 1.95242 17.2743 16.9286 -0.356551 11.851 -2.40881
lfemur -28.5598 -3.08947 -19.1443
ltibia 38.8331 0 0
lfoot -9.8042 4.02789 0.0572833
ltoes -2.27582 0 0
rfemur -3.09106 2.94798 27.0127
rtibia 36.1707 0 0
rfoot -11.4238 -4.96565 0.0475232
rtoes 1.53769 0 0
lowerback 6.19087 1.0742 1.77451
upperback 0.530237 1.64919 2.68864
thorax -2.94768 0.82399 1.63756
lowerneck -15.627 -3.03862 -9.57223
upperneck 23.2509 -2.6635 3.85538
head 10.2005 -1.61988 2.61689
lclavicle -1.26129e-14 -1.66979e-14 -2.70546e-30
lhumerus -36.0681 9.15784 83.9456
lradius 26.349 0 0
lwrist -9.00172 0 0
lhand -12.8533 21.6325 -0.013146
lfingers 7.12502 0 0
lthumb 13.2346 51.1919 -0.01276
rclavicle -1.26129e-14 -1.66979e-14 -2.70546e-30
rhumerus -30.5977 -9.59604 -78.0432
rradius 37.9924 0 0
rwrist 2.61102 0 0
rhand -16.1859 11.7529 -0.00848399
rfingers 7.12502 0 0
rthumb 10.0207 -17.9859 -0.00772549
240
root 2.01035 17.2641 17.1015 -0.234413 11.5804 -2.48719
lfemur -28.4869 -3.45029 -18.869
ltibia 36.6314 0 0
lfoot -9.5825 4.61984 0.0895408
ltoes -0.920464 0 0
rfemur -2.84136 3.09972 26.969
rtibia 35.5159 0 0
rfoot -11.4704 -5.41474 -0.0141042
rtoes 1.88952 0 0
lowerback 6.03099 1.08647 1.74335
upperback 0.523825 1.6592 2.7318
thorax -2.86104 0.830226 1.70341
lowerneck -15.7673 -3.01304 -9.60477
upperneck 23.3522 -2.58646 3.78438
head 10.2575 -1.59604 2.6073
lclavicle 3.90612e-14 -1.7175e-14 1.65108e-30
lhumerus -36.0399 9.32089 84.0408
lradius 26.1214 0 0
lwrist -9.51471 0 0
lhand -12.293 23.4345 -0.00830571
lfingers 7.12502 0 0
lthumb 13.7746 52.9581 -0.00808274
rclavicle 3.90612e-14 -1.7175e-14 1.65108e-30
rhumerus -30.3382 -9.16957 -78.046
rradius 38.4659 0 0
rwrist 2.25227 0 0
rhand -16.3462 11.6395 -0.0106784
rfingers 7.12502 0 0
rthumb 9.86603 -18.1058 -0.00970562
241
root 2.0675 17.2514 17.2731 -0.118105 11.2787 -2.47472
lfemur -28.3757 -4.19082 -18.5727
ltibia 34.4373 0 0
lfoot -9.25835 5.38945 0.127749
ltoes 0.432502 0 0
rfemur -2.58289 3.13322 26.8234
rtibia 34.9105 0 0
rfoot -12.1762 -4.98101 0.0171973
rtoes 1.44934 0 0
lowerback 5.98058 1.136 1.62317
upperback 0.505837 1.71555 2.72485
thorax -2.8482 0.859793 1.76162
lowerneck -15.83 -2.97199 -9.3986
upperneck 23.3133 -2.52943 3.5928
head 10.2458 -1.57242 2.51139
lclavicle -3.76883e-14 -1.59823e-14 -6.60155e-31
lhumerus -35.9126 9.71934 83.9669
lradius 25.6575 0 0
lwrist -10.2782 0 0
lhand -11.9058 23.3312 -0.013181
lfingers 7.12502 0 0
lthumb 14.1478 52.8287 -0.012896
rclavicle -3.76883e-14 -1.59823e-14 -6.60155e-31
rhumerus -30.1099 -8.93773 -78.001
rradius 38.8588 0 0
rwrist 1.77714 0 0
rhand -16.5603 12.062 -0.0162027
rfingers 7.12502 0 0
rthumb 9.65933 -17.6918 -0.0148166
242
root 2.12724 17.2362 17.4472 -0.0425087 11.1453 -2.16411
lfemur -28.2769 -4.98208 -18.5867
ltibia 32.3548 0 0
lfoot -8.98043 6.18584 0.161867
ltoes 1.25593 0 0
rfemur -2.29736 2.98887 26.3532
rtibia 34.3428 0 0
rfoot -12.7108 -4.74527 0.0340623
rtoes 0.326585 0 0
lowerback 5.90236 1.15026 1.26349
upperback 0.506591 1.70504 2.6633
thorax -2.79812 0.859258 1.90495
lowerneck -15.8155 -2.96194 -9.35343
upperneck 23.2313 -2.52495 3.57206
head 10.2123 -1.56765 2.49615
lclavicle -5.21325e-14 -1.06549e-14 1.39225e-30
lhumerus -35.8333 10.3812 83.6992
lradius 25.0635 0 0
lwrist -11.4788 0 0
lhand -11.676 22.0615 -0.0198906
lfingers 7.12502 0 0
lthumb 14.3692 51.5429 -0.0194488
rclavicle -5.21325e-14 -1.06549e-14 1.39225e-30
rhumerus -30.0668 -8.79892 -77.9261
rradius 39.4003 0 0
rwrist 1.32371 0 0
rhand -16.4292 12.5517 -0.016719
rfingers 7.12502 0 0
rthumb 9.78587 -17.1958 -0.0152479
